# xmcd
#
# Track frame offsets:
#  150
#  15542
#  40167
#  55964
#  74289
#  90986
#  112791
#  130302
#  150229
#  172006
#  195783
#  222198
#  244187
#  262889
#  282741
#
# Disc length: 4052 seconds
#
# Revision: 0
# Processed by: cddbd v1.4PL0 Copyright (c) Steve Scherf et al.
# Submitted via: AltoMP3_Maker 3.0
#
DISCID=c30fd20f
DTITLE=林亿莲 - 原来 － 林亿莲
DYEAR=1900
DGENRE=
TTITLE0=站在第一排
TTITLE1=默读伤悲
TTITLE2=我心在跳舞
TTITLE3=再一个夜晚
TTITLE4=I'm Not Strong Enough
TTITLE5=纸飞机
TTITLE6=十二小时不下雨
TTITLE7=It Wasn't Meant To Be
TTITLE8=舍不得说再见
TTITLE9=回到原来
TTITLE10=明明
TTITLE11=存在
TTITLE12=Better Man
TTITLE13=寂寞流星群
TTITLE14=至少还有你
EXTD=
EXTT0=
EXTT1=
EXTT2=
EXTT3=
EXTT4=
EXTT5=
EXTT6=
EXTT7=
EXTT8=
EXTT9=
EXTT10=
EXTT11=
EXTT12=
EXTT13=
EXTT14=
PLAYORDER=
